HIERARCHY
ROOT hip
{
	OFFSET 0.000000 0.000000 0.000000 
	CHANNELS 6 Xposition Yposition Zposition Xrotation Zrotation Yrotation
	JOINT abdomen
	{
		OFFSET 0.000000 3.402643 0.000000 
		CHANNELS 3 Xrotation Zrotation Yrotation
		JOINT chest
		{
			OFFSET 0.000000 8.438565 -0.680529 
			CHANNELS 3 Xrotation Zrotation Yrotation
			JOINT neck
			{
				OFFSET 0.000000 10.207942 -0.272212 
				CHANNELS 3 Xrotation Zrotation Yrotation
				JOINT head
				{
					OFFSET 0.000000 3.130431 0.000000 
					CHANNELS 3 Xrotation Zrotation Yrotation
					End Site
					{
						OFFSET 0.000000 3.130435 0.000000 
					}
				}
			}
			JOINT lCollar
			{
				OFFSET 3.470700 6.669187 -0.816635 
				CHANNELS 3 Yrotation Zrotation Xrotation
				JOINT lShldr
				{
					OFFSET 3.198488 0.000000 0.000000 
					CHANNELS 3 Zrotation Yrotation Xrotation
					JOINT lForeArm
					{
						OFFSET 10.139888 0.000000 0.000000 
						CHANNELS 3 Yrotation Zrotation Xrotation
						JOINT lHand
						{
							OFFSET 8.370511 0.000000 0.000000 
							CHANNELS 3 Zrotation Yrotation Xrotation
							End Site
							{
								OFFSET 4.083176 0.000000 0.000000 
							}
						}
					}
				}
			}
			JOINT rCollar
			{
				OFFSET -3.470700 6.669187 -0.816635 
				CHANNELS 3 Yrotation Zrotation Xrotation
				JOINT rShldr
				{
					OFFSET -3.198488 0.000000 0.000000 
					CHANNELS 3 Zrotation Yrotation Xrotation
					JOINT rForeArm
					{
						OFFSET -10.139888 0.000000 0.000000 
						CHANNELS 3 Yrotation Zrotation Xrotation
						JOINT rHand
						{
							OFFSET -8.370511 0.000000 0.000000 
							CHANNELS 3 Zrotation Yrotation Xrotation
							End Site
							{
								OFFSET -4.083176 0.000000 0.000000 
							}
						}
					}
				}
			}
		}
	}
	JOINT lThigh
	{
		OFFSET 5.308129 -1.633274 1.361059 
		CHANNELS 3 Xrotation Zrotation Yrotation
		JOINT lShin
		{
			OFFSET -2.041588 -20.007561 0.000000 
			CHANNELS 3 Xrotation Zrotation Yrotation
			JOINT lFoot
			{
				OFFSET 0.000000 -19.190928 -1.224953 
				CHANNELS 3 Xrotation Yrotation Zrotation
				End Site
				{
					OFFSET 0.000000 -2.449906 4.627600 
				}
			}
		}
	}
	JOINT rThigh
	{
		OFFSET -5.308129 -1.633274 1.361059 
		CHANNELS 3 Xrotation Zrotation Yrotation
		JOINT rShin
		{
			OFFSET 2.041588 -20.007561 0.000000 
			CHANNELS 3 Xrotation Zrotation Yrotation
			JOINT rFoot
			{
				OFFSET 0.000000 -19.190928 -1.224953 
				CHANNELS 3 Xrotation Yrotation Zrotation
				End Site
				{
					OFFSET 0.000000 -2.449906 4.627600 
				}
			}
		}
	}
}
MOTION
Frames: 11
Frame Time: 0.033333
7.982631 50.297997 -12.290893 1.261502 -1.455077 -0.068585 0.000000 0.000000 0.000000 2.730831 0.818463 3.848100 10.804646 -0.839835 -0.263787 28.852051 1.761860 -4.611394 2.590422 -0.352888 3.004890 -79.746269 24.372438 -32.695698 -57.186329 2.273354 -57.953575 12.563436 23.788965 -1.500020 6.128392 9.011002 2.818484 64.357811 -26.107759 -31.508162 50.556808 0.944301 -68.813194 -14.409558 -24.774309 -1.062967 -17.683813 0.282952 0.999470 17.752197 -3.642576 11.765236 -1.634083 -0.043759 2.660467 -4.117458 -2.204597 -5.988680 19.203720 4.781393 -19.386480 -15.510339 -0.563545 4.010746 
8.011217 50.299183 -11.667131 1.141438 -1.533179 -0.322412 0.000000 0.000000 0.000000 2.700194 0.487084 4.013858 10.707493 -0.800769 -0.312606 28.879665 2.024678 -4.612012 2.406658 -0.206477 2.995470 -80.379463 24.349720 -31.026190 -56.990307 2.144693 -56.653870 11.804020 23.906010 -1.625969 6.427037 8.712643 2.813961 65.256348 -25.719812 -29.997057 50.660370 1.321703 -68.488365 -13.934525 -24.952860 -1.136165 -15.297061 0.399906 0.649681 15.358599 -3.241602 9.920341 -2.056948 -0.051742 3.312809 -2.868858 -1.921950 -5.700067 18.458948 4.418341 -19.503248 -15.778413 -0.615337 4.403745 
8.043510 50.281349 -11.119376 1.325650 -1.474591 -0.283361 0.000000 0.000000 0.000000 2.527910 -0.019482 4.072266 10.652388 -0.781210 -0.576251 28.824432 2.345900 -4.613099 2.088736 -0.315718 2.869268 -80.667160 24.195198 -29.707029 -56.975731 1.942398 -55.953545 10.743679 23.973005 -1.819581 6.417761 8.593023 2.715261 66.024261 -25.494253 -28.826639 50.857941 1.731652 -66.280487 -12.692223 -24.902895 -1.378965 -15.328193 0.410307 1.157043 16.045553 -3.641672 11.040526 -3.047843 -0.109364 4.502348 -2.183838 -1.841901 -5.523471 18.065868 4.013464 -20.356419 -16.058784 -0.747835 5.172288 
8.094591 50.334629 -10.640989 1.272556 -0.771478 -0.224721 0.000000 0.000000 0.000000 2.675081 -1.042638 3.789678 10.821283 -1.064256 -1.103869 28.661551 2.171357 -4.387901 1.734845 -1.354745 3.056293 -80.161751 24.023502 -28.327101 -57.139935 1.701128 -55.301868 10.052158 24.430197 -1.909082 6.142482 8.128874 2.959685 66.382950 -24.722704 -27.147354 51.009510 2.278588 -65.356560 -9.915854 -24.913424 -1.914050 -14.322814 -0.000032 1.522617 15.417748 -4.250616 10.964285 -3.413486 -0.150913 4.764957 -1.063450 -2.691202 -6.199927 17.341599 3.937621 -20.958963 -16.139126 -0.843844 5.738347 
8.172744 50.341053 -10.212857 1.133884 -0.224607 -0.273474 0.000000 0.000000 0.000000 2.912341 -1.813356 3.321738 11.006481 -1.454537 -1.563236 27.992361 2.230460 -4.153321 1.000676 -2.104531 3.273500 -80.255241 24.018856 -27.416712 -57.155930 1.632494 -55.101665 8.542699 24.307428 -2.210715 5.846969 7.507905 3.230807 66.570213 -23.424900 -25.049139 51.814354 2.824084 -66.724983 -11.049516 -23.862137 -1.792115 -13.605781 -0.185433 1.987798 15.432005 -4.901643 10.357656 -4.013767 -0.147481 5.018572 -0.400577 -3.833095 -7.597700 17.371162 4.421058 -20.985653 -16.425745 -0.891292 6.058153 
8.313555 50.408886 -9.808833 0.832165 -0.214834 -0.556673 0.000000 0.000000 0.000000 3.211514 -1.940835 2.921552 11.247827 -1.503183 -1.778013 27.406273 2.308774 -4.016703 0.445405 -2.134750 3.547476 -80.632477 23.423765 -26.333454 -56.534237 1.599119 -55.186943 8.002542 24.304647 -2.301676 5.702293 7.235551 3.503894 66.460754 -22.368219 -22.782732 52.437382 3.468768 -64.623886 -9.428297 -23.924524 -2.085070 -12.513009 -0.234249 2.212401 14.922873 -5.046895 10.548642 -4.330457 -0.197416 5.171923 0.399210 -4.516663 -8.877821 16.656096 5.112616 -19.067022 -16.133842 -0.784850 5.439555 
8.420777 50.536682 -9.422162 0.426390 -0.566369 -0.654361 0.000000 0.000000 0.000000 3.570436 -1.804784 2.598827 11.314025 -1.249518 -1.592270 27.637878 2.719012 -3.675611 -0.075100 -1.502568 3.849141 -81.195450 22.230154 -25.003244 -55.548264 1.611921 -55.264263 8.647703 24.461733 -2.175141 5.325001 7.809813 3.803822 65.566841 -20.943565 -20.526852 53.036255 3.987863 -64.010262 -9.007587 -23.843481 -2.167421 -11.012072 -0.078128 2.390255 13.646785 -4.980527 10.771006 -4.231504 -0.194277 5.319972 -0.009979 -4.950325 -9.596941 17.271410 5.649706 -16.891935 -14.984140 -0.671433 4.871344 
8.469042 50.678120 -9.048360 0.119168 -1.093687 -0.615495 0.000000 0.000000 0.000000 3.682932 -1.473496 2.227082 11.259327 -0.829576 -1.992402 28.097271 2.105043 -3.674057 -0.468296 -1.011363 3.965452 -81.744888 21.276722 -23.816481 -54.620968 1.676437 -54.591957 9.680006 24.117538 -2.004822 4.987184 8.341295 3.870241 64.844025 -19.870050 -19.032412 53.481457 4.344203 -63.591362 -7.256679 -23.662413 -2.490556 -9.587399 0.234368 2.487260 12.388305 -4.795575 10.767202 -4.089784 -0.194812 5.349223 -2.497980 -5.403544 -9.449828 20.525162 5.477279 -15.338254 -13.083579 -0.618004 5.129432 
8.472829 50.757080 -8.662782 -0.081118 -1.542745 -0.976997 0.000000 0.000000 0.000000 3.502538 -1.161336 2.090206 11.472159 -0.722157 -2.129106 27.857737 2.017267 -3.703343 -0.569424 -0.859821 3.789309 -82.088699 21.075485 -22.763981 -53.873322 1.696380 -54.224686 10.271533 23.936050 -1.908569 4.943080 8.710149 3.666995 64.145683 -19.434467 -17.653936 53.904408 4.683570 -62.697884 -7.398501 -23.368797 -2.483520 -8.731126 0.692000 2.891577 12.154358 -4.812845 10.960260 -4.517009 -0.208850 5.265411 -4.452179 -5.564673 -8.491283 21.525015 4.810146 -14.166854 -11.416236 -0.524005 4.982180 
8.509041 50.816544 -8.310808 -0.092675 -1.806104 -1.397330 0.000000 0.000000 0.000000 3.208236 -0.975972 1.992397 11.487738 -0.292674 -2.568426 27.266783 1.276354 -3.887493 -0.590190 -0.584271 3.525407 -82.505569 20.824421 -21.792059 -52.808781 1.690533 -54.151962 10.734318 23.294996 -1.881136 4.958331 8.849382 3.374161 63.653259 -18.955221 -16.009321 53.920326 5.062260 -61.190697 -7.156151 -22.791742 -2.558778 -8.057725 0.809285 3.033181 11.840608 -4.755832 11.634323 -4.932018 -0.235126 5.239449 -6.903417 -5.946293 -7.411997 22.590010 4.209774 -11.899384 -10.111240 -0.340742 3.768754 
8.538187 50.802082 -7.988665 -0.175081 -2.089257 -1.358655 0.000000 0.000000 0.000000 3.044570 -0.800484 1.562620 11.500011 -0.136593 -2.460954 26.858189 2.144257 -3.576463 -0.985695 -0.371238 3.378515 -82.935104 20.608686 -21.261621 -51.917599 1.650011 -55.358025 11.884689 21.741024 -1.817674 4.885139 9.481160 3.172735 62.653885 -18.579111 -14.274879 54.534477 5.454783 -60.997517 -7.502239 -22.531469 -2.503165 -8.080988 0.809850 2.985866 12.594659 -4.454562 12.713252 -5.654915 -0.246269 4.958587 -8.198188 -6.381936 -6.518746 21.631567 3.883435 -8.593873 -8.698653 -0.241768 3.069982 
